<svg xmlns="http://www.w3.org/2000/svg" viewBox="0 0 24 24" width="24" height="24" ><g fill="#F5B82E" stroke="none"><path d="M11 3.5c.6 3.8 2.2 5.4 6 6-3.8.6-5.4 2.2-6 6-.6-3.8-2.2-5.4-6-6 3.8-.6 5.4-2.2 6-6Z" /></g><g fill="none" stroke="currentColor" stroke-width="1.75" stroke-linecap="round" stroke-linejoin="round"><path d="M11 3.5c.6 3.8 2.2 5.4 6 6-3.8.6-5.4 2.2-6 6-.6-3.8-2.2-5.4-6-6 3.8-.6 5.4-2.2 6-6Z" /><path d="M18 14.5c.3 1.6.9 2.2 2.5 2.5-1.6.3-2.2.9-2.5 2.5-.3-1.6-.9-2.2-2.5-2.5 1.6-.3 2.2-.9 2.5-2.5Z" /></g><g fill="currentColor" stroke="currentColor" stroke-width="0.6" stroke-linejoin="round"><circle cx="5.5" cy="18.5" r="1.1" /></g></svg>