<svg xmlns="http://www.w3.org/2000/svg" width="512" height="512" viewBox="0 0 512 512" role="img" aria-label="Pelbu LMS">
  <defs>
    <linearGradient id="pelbuGradM" x1="0" y1="0" x2="1" y2="1">
      <stop offset="0" stop-color="#FFC72C"/>
      <stop offset="0.55" stop-color="#FF8A2B"/>
      <stop offset="1" stop-color="#FF6B35"/>
    </linearGradient>
  </defs>
  <rect x="0" y="0" width="512" height="512" fill="url(#pelbuGradM)"/>
  <g transform="translate(172 174) scale(7)" fill="none" stroke="#ffffff" stroke-width="1.5" stroke-linecap="round" stroke-linejoin="round">
    <path d="M12 7v14"/>
    <path d="M3 18a1 1 0 0 1-1-1V4a1 1 0 0 1 1-1h5a4 4 0 0 1 4 4 4 4 0 0 1 4-4h5a1 1 0 0 1 1 1v13a1 1 0 0 1-1 1h-6a3 3 0 0 0-3 3 3 3 0 0 0-3-3z"/>
  </g>
</svg>
