<svg xmlns="http://www.w3.org/2000/svg" viewBox="2 -2 116 116" width="116" height="116" ><path d="M38 24C30 18 27 10 28 2C36 6 42 13 44 21Z" fill="#E8743B"/><path d="M82 24C90 18 93 10 92 2C84 6 78 13 76 21Z" fill="#2F6B4F"/><path d="M60 16C86 16 100 36 100 62C100 90 84 108 60 108C36 108 20 90 20 62C20 36 34 16 60 16Z" fill="#1B2433"/><defs><radialGradient id="rgglow58"><stop offset="0" stop-color="#F5B82E" stop-opacity="0.75"/><stop offset="0.5" stop-color="#F5B82E" stop-opacity="0.32"/><stop offset="1" stop-color="#F5B82E" stop-opacity="0"/></radialGradient></defs><circle cx="60" cy="93" r="17" fill="url(#rgglow58)"/><path d="M22 58C16 78 26 98 48 104C46 84 38 68 22 58Z" fill="#E8743B"/><path d="M98 58C104 78 94 98 72 104C74 84 82 68 98 58Z" fill="#2F6B4F"/><path d="M60 34C52 26 30 26 28 46C26 64 44 76 60 82C76 76 94 64 92 46C90 26 68 26 60 34Z" fill="#FAF7F2"/><circle cx="45" cy="50" r="11.5" fill="#F5B82E"/><circle cx="45" cy="50" r="3.8" fill="#1B2433"/><circle cx="75" cy="50" r="11.5" fill="#F5B82E"/><circle cx="75" cy="50" r="3.8" fill="#1B2433"/><path d="M60 58L65.5 64L60 71L54.5 64Z" fill="#E8743B"/><circle cx="60" cy="93" r="7" fill="#F5B82E"/><circle cx="57.6" cy="90.6" r="2" fill="#FAF7F2" fill-opacity="0.9"/><g fill="#E8743B"><ellipse cx="51.5" cy="108.6" rx="4.6" ry="2.6"/><ellipse cx="68.5" cy="108.6" rx="4.6" ry="2.6"/></g><path d="M98 14a6 6 0 1 1 8.4 5.5c-1.8.8-2.4 2-2.4 3.6v1.2" fill="none" stroke="#E8743B" stroke-width="3.6" stroke-linecap="round"/><circle cx="104" cy="31" r="2.3" fill="#E8743B"/></svg>